<?xml version="1.0" encoding="utf-8"?>
<svg xmlns="http://www.w3.org/2000/svg" xmlns:xlink="http://www.w3.org/1999/xlink" width="600" height="400" viewBox="0 0 2400 1600">
<defs>
  <clipPath id="clip650">
    <rect x="0" y="0" width="2400" height="1600"/>
  </clipPath>
</defs>
<path clip-path="url(#clip650)" d="M0 1600 L2400 1600 L2400 0 L0 0  Z" fill="#ffffff" fill-rule="evenodd" fill-opacity="1"/>
<defs>
  <clipPath id="clip651">
    <rect x="480" y="0" width="1681" height="1600"/>
  </clipPath>
</defs>
<path clip-path="url(#clip650)" d="M202.227 1423.18 L2352.76 1423.18 L2352.76 47.2441 L202.227 47.2441  Z" fill="#ffffff" fill-rule="evenodd" fill-opacity="1"/>
<defs>
  <clipPath id="clip652">
    <rect x="202" y="47" width="2152" height="1377"/>
  </clipPath>
</defs>
<polyline clip-path="url(#clip652)" style="stroke:#000000; stroke-linecap:round; stroke-linejoin:round; stroke-width:2; stroke-opacity:0.1; fill:none" points="606.679,1423.18 606.679,47.2441 "/>
<polyline clip-path="url(#clip652)" style="stroke:#000000; stroke-linecap:round; stroke-linejoin:round; stroke-width:2; stroke-opacity:0.1; fill:none" points="1015.71,1423.18 1015.71,47.2441 "/>
<polyline clip-path="url(#clip652)" style="stroke:#000000; stroke-linecap:round; stroke-linejoin:round; stroke-width:2; stroke-opacity:0.1; fill:none" points="1424.74,1423.18 1424.74,47.2441 "/>
<polyline clip-path="url(#clip652)" style="stroke:#000000; stroke-linecap:round; stroke-linejoin:round; stroke-width:2; stroke-opacity:0.1; fill:none" points="1833.78,1423.18 1833.78,47.2441 "/>
<polyline clip-path="url(#clip652)" style="stroke:#000000; stroke-linecap:round; stroke-linejoin:round; stroke-width:2; stroke-opacity:0.1; fill:none" points="2242.81,1423.18 2242.81,47.2441 "/>
<polyline clip-path="url(#clip652)" style="stroke:#000000; stroke-linecap:round; stroke-linejoin:round; stroke-width:2; stroke-opacity:0.1; fill:none" points="202.227,1223.89 2352.76,1223.89 "/>
<polyline clip-path="url(#clip652)" style="stroke:#000000; stroke-linecap:round; stroke-linejoin:round; stroke-width:2; stroke-opacity:0.1; fill:none" points="202.227,970.258 2352.76,970.258 "/>
<polyline clip-path="url(#clip652)" style="stroke:#000000; stroke-linecap:round; stroke-linejoin:round; stroke-width:2; stroke-opacity:0.1; fill:none" points="202.227,716.631 2352.76,716.631 "/>
<polyline clip-path="url(#clip652)" style="stroke:#000000; stroke-linecap:round; stroke-linejoin:round; stroke-width:2; stroke-opacity:0.1; fill:none" points="202.227,463.004 2352.76,463.004 "/>
<polyline clip-path="url(#clip652)" style="stroke:#000000; stroke-linecap:round; stroke-linejoin:round; stroke-width:2; stroke-opacity:0.1; fill:none" points="202.227,209.376 2352.76,209.376 "/>
<polyline clip-path="url(#clip650)" style="stroke:#000000; stroke-linecap:round; stroke-linejoin:round; stroke-width:4; stroke-opacity:1; fill:none" points="202.227,1423.18 2352.76,1423.18 "/>
<polyline clip-path="url(#clip650)" style="stroke:#000000; stroke-linecap:round; stroke-linejoin:round; stroke-width:4; stroke-opacity:1; fill:none" points="606.679,1423.18 606.679,1404.28 "/>
<polyline clip-path="url(#clip650)" style="stroke:#000000; stroke-linecap:round; stroke-linejoin:round; stroke-width:4; stroke-opacity:1; fill:none" points="1015.71,1423.18 1015.71,1404.28 "/>
<polyline clip-path="url(#clip650)" style="stroke:#000000; stroke-linecap:round; stroke-linejoin:round; stroke-width:4; stroke-opacity:1; fill:none" points="1424.74,1423.18 1424.74,1404.28 "/>
<polyline clip-path="url(#clip650)" style="stroke:#000000; stroke-linecap:round; stroke-linejoin:round; stroke-width:4; stroke-opacity:1; fill:none" points="1833.78,1423.18 1833.78,1404.28 "/>
<polyline clip-path="url(#clip650)" style="stroke:#000000; stroke-linecap:round; stroke-linejoin:round; stroke-width:4; stroke-opacity:1; fill:none" points="2242.81,1423.18 2242.81,1404.28 "/>
<path clip-path="url(#clip650)" d="M585.95 1481.64 L602.269 1481.64 L602.269 1485.58 L580.325 1485.58 L580.325 1481.64 Q582.987 1478.89 587.57 1474.26 Q592.176 1469.61 593.357 1468.27 Q595.602 1465.74 596.482 1464.01 Q597.385 1462.25 597.385 1460.56 Q597.385 1457.8 595.44 1456.07 Q593.519 1454.33 590.417 1454.33 Q588.218 1454.33 585.764 1455.09 Q583.334 1455.86 580.556 1457.41 L580.556 1452.69 Q583.38 1451.55 585.834 1450.97 Q588.288 1450.39 590.325 1450.39 Q595.695 1450.39 598.889 1453.08 Q602.084 1455.77 602.084 1460.26 Q602.084 1462.39 601.274 1464.31 Q600.487 1466.2 598.38 1468.8 Q597.801 1469.47 594.7 1472.69 Q591.598 1475.88 585.95 1481.64 Z" fill="#000000" fill-rule="nonzero" fill-opacity="1" /><path clip-path="url(#clip650)" d="M612.13 1451.02 L630.486 1451.02 L630.486 1454.96 L616.412 1454.96 L616.412 1463.43 Q617.431 1463.08 618.449 1462.92 Q619.468 1462.73 620.486 1462.73 Q626.273 1462.73 629.653 1465.9 Q633.033 1469.08 633.033 1474.49 Q633.033 1480.07 629.56 1483.17 Q626.088 1486.25 619.769 1486.25 Q617.593 1486.25 615.324 1485.88 Q613.079 1485.51 610.672 1484.77 L610.672 1480.07 Q612.755 1481.2 614.977 1481.76 Q617.199 1482.32 619.676 1482.32 Q623.681 1482.32 626.019 1480.21 Q628.357 1478.1 628.357 1474.49 Q628.357 1470.88 626.019 1468.77 Q623.681 1466.67 619.676 1466.67 Q617.801 1466.67 615.926 1467.08 Q614.074 1467.5 612.13 1468.38 L612.13 1451.02 Z" fill="#000000" fill-rule="nonzero" fill-opacity="1" /><path clip-path="url(#clip650)" d="M990.41 1451.02 L1008.77 1451.02 L1008.77 1454.96 L994.693 1454.96 L994.693 1463.43 Q995.711 1463.08 996.73 1462.92 Q997.748 1462.73 998.767 1462.73 Q1004.55 1462.73 1007.93 1465.9 Q1011.31 1469.08 1011.31 1474.49 Q1011.31 1480.07 1007.84 1483.17 Q1004.37 1486.25 998.049 1486.25 Q995.873 1486.25 993.605 1485.88 Q991.359 1485.51 988.952 1484.77 L988.952 1480.07 Q991.035 1481.2 993.257 1481.76 Q995.48 1482.32 997.956 1482.32 Q1001.96 1482.32 1004.3 1480.21 Q1006.64 1478.1 1006.64 1474.49 Q1006.64 1470.88 1004.3 1468.77 Q1001.96 1466.67 997.956 1466.67 Q996.081 1466.67 994.206 1467.08 Q992.355 1467.5 990.41 1468.38 L990.41 1451.02 Z" fill="#000000" fill-rule="nonzero" fill-opacity="1" /><path clip-path="url(#clip650)" d="M1030.53 1454.1 Q1026.91 1454.1 1025.09 1457.66 Q1023.28 1461.2 1023.28 1468.33 Q1023.28 1475.44 1025.09 1479.01 Q1026.91 1482.55 1030.53 1482.55 Q1034.16 1482.55 1035.97 1479.01 Q1037.79 1475.44 1037.79 1468.33 Q1037.79 1461.2 1035.97 1457.66 Q1034.16 1454.1 1030.53 1454.1 M1030.53 1450.39 Q1036.34 1450.39 1039.39 1455 Q1042.47 1459.58 1042.47 1468.33 Q1042.47 1477.06 1039.39 1481.67 Q1036.34 1486.25 1030.53 1486.25 Q1024.72 1486.25 1021.64 1481.67 Q1018.58 1477.06 1018.58 1468.33 Q1018.58 1459.58 1021.64 1455 Q1024.72 1450.39 1030.53 1450.39 Z" fill="#000000" fill-rule="nonzero" fill-opacity="1" /><path clip-path="url(#clip650)" d="M1398.6 1451.02 L1420.82 1451.02 L1420.82 1453.01 L1408.27 1485.58 L1403.39 1485.58 L1415.19 1454.96 L1398.6 1454.96 L1398.6 1451.02 Z" fill="#000000" fill-rule="nonzero" fill-opacity="1" /><path clip-path="url(#clip650)" d="M1429.99 1451.02 L1448.34 1451.02 L1448.34 1454.96 L1434.27 1454.96 L1434.27 1463.43 Q1435.29 1463.08 1436.31 1462.92 Q1437.32 1462.73 1438.34 1462.73 Q1444.13 1462.73 1447.51 1465.9 Q1450.89 1469.08 1450.89 1474.49 Q1450.89 1480.07 1447.42 1483.17 Q1443.94 1486.25 1437.63 1486.25 Q1435.45 1486.25 1433.18 1485.88 Q1430.94 1485.51 1428.53 1484.77 L1428.53 1480.07 Q1430.61 1481.2 1432.83 1481.76 Q1435.06 1482.32 1437.53 1482.32 Q1441.54 1482.32 1443.88 1480.21 Q1446.21 1478.1 1446.21 1474.49 Q1446.21 1470.88 1443.88 1468.77 Q1441.54 1466.67 1437.53 1466.67 Q1435.66 1466.67 1433.78 1467.08 Q1431.93 1467.5 1429.99 1468.38 L1429.99 1451.02 Z" fill="#000000" fill-rule="nonzero" fill-opacity="1" /><path clip-path="url(#clip650)" d="M1793.38 1481.64 L1801.02 1481.64 L1801.02 1455.28 L1792.71 1456.95 L1792.71 1452.69 L1800.97 1451.02 L1805.65 1451.02 L1805.65 1481.64 L1813.29 1481.64 L1813.29 1485.58 L1793.38 1485.58 L1793.38 1481.64 Z" fill="#000000" fill-rule="nonzero" fill-opacity="1" /><path clip-path="url(#clip650)" d="M1832.73 1454.1 Q1829.12 1454.1 1827.29 1457.66 Q1825.49 1461.2 1825.49 1468.33 Q1825.49 1475.44 1827.29 1479.01 Q1829.12 1482.55 1832.73 1482.55 Q1836.37 1482.55 1838.17 1479.01 Q1840 1475.44 1840 1468.33 Q1840 1461.2 1838.17 1457.66 Q1836.37 1454.1 1832.73 1454.1 M1832.73 1450.39 Q1838.54 1450.39 1841.6 1455 Q1844.68 1459.58 1844.68 1468.33 Q1844.68 1477.06 1841.6 1481.67 Q1838.54 1486.25 1832.73 1486.25 Q1826.92 1486.25 1823.85 1481.67 Q1820.79 1477.06 1820.79 1468.33 Q1820.79 1459.58 1823.85 1455 Q1826.92 1450.39 1832.73 1450.39 Z" fill="#000000" fill-rule="nonzero" fill-opacity="1" /><path clip-path="url(#clip650)" d="M1862.9 1454.1 Q1859.28 1454.1 1857.46 1457.66 Q1855.65 1461.2 1855.65 1468.33 Q1855.65 1475.44 1857.46 1479.01 Q1859.28 1482.55 1862.9 1482.55 Q1866.53 1482.55 1868.34 1479.01 Q1870.16 1475.44 1870.16 1468.33 Q1870.16 1461.2 1868.34 1457.66 Q1866.53 1454.1 1862.9 1454.1 M1862.9 1450.39 Q1868.71 1450.39 1871.76 1455 Q1874.84 1459.58 1874.84 1468.33 Q1874.84 1477.06 1871.76 1481.67 Q1868.71 1486.25 1862.9 1486.25 Q1857.09 1486.25 1854.01 1481.67 Q1850.95 1477.06 1850.95 1468.33 Q1850.95 1459.58 1854.01 1455 Q1857.09 1450.39 1862.9 1450.39 Z" fill="#000000" fill-rule="nonzero" fill-opacity="1" /><path clip-path="url(#clip650)" d="M2202.91 1481.64 L2210.55 1481.64 L2210.55 1455.28 L2202.24 1456.95 L2202.24 1452.69 L2210.5 1451.02 L2215.18 1451.02 L2215.18 1481.64 L2222.82 1481.64 L2222.82 1485.58 L2202.91 1485.58 L2202.91 1481.64 Z" fill="#000000" fill-rule="nonzero" fill-opacity="1" /><path clip-path="url(#clip650)" d="M2236.29 1481.64 L2252.61 1481.64 L2252.61 1485.58 L2230.67 1485.58 L2230.67 1481.64 Q2233.33 1478.89 2237.91 1474.26 Q2242.52 1469.61 2243.7 1468.27 Q2245.94 1465.74 2246.82 1464.01 Q2247.73 1462.25 2247.73 1460.56 Q2247.73 1457.8 2245.78 1456.07 Q2243.86 1454.33 2240.76 1454.33 Q2238.56 1454.33 2236.11 1455.09 Q2233.68 1455.86 2230.9 1457.41 L2230.9 1452.69 Q2233.72 1451.55 2236.18 1450.97 Q2238.63 1450.39 2240.67 1450.39 Q2246.04 1450.39 2249.23 1453.08 Q2252.43 1455.77 2252.43 1460.26 Q2252.43 1462.39 2251.62 1464.31 Q2250.83 1466.2 2248.72 1468.8 Q2248.14 1469.47 2245.04 1472.69 Q2241.94 1475.88 2236.29 1481.64 Z" fill="#000000" fill-rule="nonzero" fill-opacity="1" /><path clip-path="url(#clip650)" d="M2262.47 1451.02 L2280.83 1451.02 L2280.83 1454.96 L2266.75 1454.96 L2266.75 1463.43 Q2267.77 1463.08 2268.79 1462.92 Q2269.81 1462.73 2270.83 1462.73 Q2276.62 1462.73 2280 1465.9 Q2283.37 1469.08 2283.37 1474.49 Q2283.37 1480.07 2279.9 1483.17 Q2276.43 1486.25 2270.11 1486.25 Q2267.94 1486.25 2265.67 1485.88 Q2263.42 1485.51 2261.01 1484.77 L2261.01 1480.07 Q2263.1 1481.2 2265.32 1481.76 Q2267.54 1482.32 2270.02 1482.32 Q2274.02 1482.32 2276.36 1480.21 Q2278.7 1478.1 2278.7 1474.49 Q2278.7 1470.88 2276.36 1468.77 Q2274.02 1466.67 2270.02 1466.67 Q2268.14 1466.67 2266.27 1467.08 Q2264.42 1467.5 2262.47 1468.38 L2262.47 1451.02 Z" fill="#000000" fill-rule="nonzero" fill-opacity="1" /><path clip-path="url(#clip650)" d="M1163.99 1518.52 L1169.85 1518.52 L1169.85 1568.04 L1163.99 1568.04 L1163.99 1518.52 Z" fill="#000000" fill-rule="nonzero" fill-opacity="1" /><path clip-path="url(#clip650)" d="M1195.92 1536.5 Q1191.2 1536.5 1188.47 1540.19 Q1185.73 1543.85 1185.73 1550.25 Q1185.73 1556.65 1188.44 1560.34 Q1191.17 1564 1195.92 1564 Q1200.59 1564 1203.33 1560.31 Q1206.07 1556.62 1206.07 1550.25 Q1206.07 1543.92 1203.33 1540.23 Q1200.59 1536.5 1195.92 1536.5 M1195.92 1531.54 Q1203.55 1531.54 1207.91 1536.5 Q1212.28 1541.47 1212.28 1550.25 Q1212.28 1559 1207.91 1564 Q1203.55 1568.97 1195.92 1568.97 Q1188.24 1568.97 1183.88 1564 Q1179.56 1559 1179.56 1550.25 Q1179.56 1541.47 1183.88 1536.5 Q1188.24 1531.54 1195.92 1531.54 Z" fill="#000000" fill-rule="nonzero" fill-opacity="1" /><path clip-path="url(#clip650)" d="M1245.44 1549.81 Q1245.44 1543.44 1242.8 1539.94 Q1240.19 1536.44 1235.45 1536.44 Q1230.74 1536.44 1228.09 1539.94 Q1225.48 1543.44 1225.48 1549.81 Q1225.48 1556.14 1228.09 1559.64 Q1230.74 1563.14 1235.45 1563.14 Q1240.19 1563.14 1242.8 1559.64 Q1245.44 1556.14 1245.44 1549.81 M1251.3 1563.62 Q1251.3 1572.72 1247.25 1577.15 Q1243.21 1581.6 1234.87 1581.6 Q1231.79 1581.6 1229.05 1581.13 Q1226.31 1580.68 1223.73 1579.72 L1223.73 1574.03 Q1226.31 1575.43 1228.83 1576.1 Q1231.34 1576.76 1233.95 1576.76 Q1239.71 1576.76 1242.58 1573.74 Q1245.44 1570.75 1245.44 1564.67 L1245.44 1561.77 Q1243.63 1564.92 1240.79 1566.48 Q1237.96 1568.04 1234.01 1568.04 Q1227.46 1568.04 1223.45 1563.05 Q1219.44 1558.05 1219.44 1549.81 Q1219.44 1541.53 1223.45 1536.53 Q1227.46 1531.54 1234.01 1531.54 Q1237.96 1531.54 1240.79 1533.1 Q1243.63 1534.66 1245.44 1537.81 L1245.44 1532.4 L1251.3 1532.4 L1251.3 1563.62 Z" fill="#000000" fill-rule="nonzero" fill-opacity="1" /><path clip-path="url(#clip650)" d="M1277.43 1518.58 Q1273.16 1525.9 1271.09 1533.06 Q1269.03 1540.23 1269.03 1547.58 Q1269.03 1554.93 1271.09 1562.16 Q1273.19 1569.35 1277.43 1576.64 L1272.34 1576.64 Q1267.56 1569.16 1265.17 1561.93 Q1262.82 1554.71 1262.82 1547.58 Q1262.82 1540.48 1265.17 1533.29 Q1267.53 1526.09 1272.34 1518.58 L1277.43 1518.58 Z" fill="#000000" fill-rule="nonzero" fill-opacity="1" /><path clip-path="url(#clip650)" d="M1296.33 1518.23 L1296.33 1583.42 L1290.92 1583.42 L1290.92 1518.23 L1296.33 1518.23 Z" fill="#000000" fill-rule="nonzero" fill-opacity="1" /><path clip-path="url(#clip650)" d="M1323.26 1568.04 L1305.12 1520.52 L1311.83 1520.52 L1326.89 1560.53 L1341.98 1520.52 L1348.66 1520.52 L1330.55 1568.04 L1323.26 1568.04 Z" fill="#000000" fill-rule="nonzero" fill-opacity="1" /><path clip-path="url(#clip650)" d="M1362.89 1518.23 L1362.89 1583.42 L1357.48 1583.42 L1357.48 1518.23 L1362.89 1518.23 Z" fill="#000000" fill-rule="nonzero" fill-opacity="1" /><path clip-path="url(#clip650)" d="M1376.38 1518.58 L1381.48 1518.58 Q1386.25 1526.09 1388.61 1533.29 Q1390.99 1540.48 1390.99 1547.58 Q1390.99 1554.71 1388.61 1561.93 Q1386.25 1569.16 1381.48 1576.64 L1376.38 1576.64 Q1380.62 1569.35 1382.68 1562.16 Q1384.79 1554.93 1384.79 1547.58 Q1384.79 1540.23 1382.68 1533.06 Q1380.62 1525.9 1376.38 1518.58 Z" fill="#000000" fill-rule="nonzero" fill-opacity="1" /><polyline clip-path="url(#clip650)" style="stroke:#000000; stroke-linecap:round; stroke-linejoin:round; stroke-width:4; stroke-opacity:1; fill:none" points="202.227,1423.18 202.227,47.2441 "/>
<polyline clip-path="url(#clip650)" style="stroke:#000000; stroke-linecap:round; stroke-linejoin:round; stroke-width:4; stroke-opacity:1; fill:none" points="202.227,1223.89 221.125,1223.89 "/>
<polyline clip-path="url(#clip650)" style="stroke:#000000; stroke-linecap:round; stroke-linejoin:round; stroke-width:4; stroke-opacity:1; fill:none" points="202.227,970.258 221.125,970.258 "/>
<polyline clip-path="url(#clip650)" style="stroke:#000000; stroke-linecap:round; stroke-linejoin:round; stroke-width:4; stroke-opacity:1; fill:none" points="202.227,716.631 221.125,716.631 "/>
<polyline clip-path="url(#clip650)" style="stroke:#000000; stroke-linecap:round; stroke-linejoin:round; stroke-width:4; stroke-opacity:1; fill:none" points="202.227,463.004 221.125,463.004 "/>
<polyline clip-path="url(#clip650)" style="stroke:#000000; stroke-linecap:round; stroke-linejoin:round; stroke-width:4; stroke-opacity:1; fill:none" points="202.227,209.376 221.125,209.376 "/>
<path clip-path="url(#clip650)" d="M149.908 1237.23 L166.227 1237.23 L166.227 1241.17 L144.283 1241.17 L144.283 1237.23 Q146.945 1234.48 151.528 1229.85 Q156.135 1225.19 157.315 1223.85 Q159.561 1221.33 160.44 1219.59 Q161.343 1217.83 161.343 1216.14 Q161.343 1213.39 159.399 1211.65 Q157.478 1209.92 154.376 1209.92 Q152.177 1209.92 149.723 1210.68 Q147.292 1211.44 144.515 1212.99 L144.515 1208.27 Q147.339 1207.14 149.792 1206.56 Q152.246 1205.98 154.283 1205.98 Q159.653 1205.98 162.848 1208.67 Q166.042 1211.35 166.042 1215.84 Q166.042 1217.97 165.232 1219.89 Q164.445 1221.79 162.339 1224.38 Q161.76 1225.05 158.658 1228.27 Q155.556 1231.47 149.908 1237.23 Z" fill="#000000" fill-rule="nonzero" fill-opacity="1" /><path clip-path="url(#clip650)" d="M156.644 957.052 L144.839 975.501 L156.644 975.501 L156.644 957.052 M155.417 952.978 L161.297 952.978 L161.297 975.501 L166.227 975.501 L166.227 979.39 L161.297 979.39 L161.297 987.538 L156.644 987.538 L156.644 979.39 L141.042 979.39 L141.042 974.876 L155.417 952.978 Z" fill="#000000" fill-rule="nonzero" fill-opacity="1" /><path clip-path="url(#clip650)" d="M154.7 714.767 Q151.552 714.767 149.7 716.92 Q147.871 719.073 147.871 722.823 Q147.871 726.55 149.7 728.726 Q151.552 730.879 154.7 730.879 Q157.848 730.879 159.677 728.726 Q161.528 726.55 161.528 722.823 Q161.528 719.073 159.677 716.92 Q157.848 714.767 154.7 714.767 M163.982 700.115 L163.982 704.374 Q162.223 703.541 160.417 703.101 Q158.635 702.661 156.876 702.661 Q152.246 702.661 149.792 705.786 Q147.362 708.911 147.015 715.23 Q148.38 713.217 150.441 712.152 Q152.501 711.064 154.978 711.064 Q160.186 711.064 163.195 714.235 Q166.227 717.383 166.227 722.823 Q166.227 728.147 163.079 731.365 Q159.931 734.582 154.7 734.582 Q148.704 734.582 145.533 729.999 Q142.362 725.392 142.362 716.666 Q142.362 708.471 146.251 703.61 Q150.14 698.726 156.69 698.726 Q158.45 698.726 160.232 699.073 Q162.038 699.42 163.982 700.115 Z" fill="#000000" fill-rule="nonzero" fill-opacity="1" /><path clip-path="url(#clip650)" d="M154.376 463.872 Q151.042 463.872 149.121 465.654 Q147.223 467.436 147.223 470.561 Q147.223 473.686 149.121 475.469 Q151.042 477.251 154.376 477.251 Q157.709 477.251 159.63 475.469 Q161.552 473.663 161.552 470.561 Q161.552 467.436 159.63 465.654 Q157.732 463.872 154.376 463.872 M149.7 461.881 Q146.691 461.14 145.001 459.08 Q143.334 457.02 143.334 454.057 Q143.334 449.913 146.274 447.506 Q149.237 445.099 154.376 445.099 Q159.538 445.099 162.477 447.506 Q165.417 449.913 165.417 454.057 Q165.417 457.02 163.727 459.08 Q162.061 461.14 159.075 461.881 Q162.454 462.668 164.329 464.96 Q166.227 467.251 166.227 470.561 Q166.227 475.584 163.149 478.27 Q160.093 480.955 154.376 480.955 Q148.658 480.955 145.579 478.27 Q142.524 475.584 142.524 470.561 Q142.524 467.251 144.422 464.96 Q146.32 462.668 149.7 461.881 M147.987 454.497 Q147.987 457.182 149.653 458.686 Q151.343 460.191 154.376 460.191 Q157.385 460.191 159.075 458.686 Q160.788 457.182 160.788 454.497 Q160.788 451.811 159.075 450.307 Q157.385 448.802 154.376 448.802 Q151.343 448.802 149.653 450.307 Q147.987 451.811 147.987 454.497 Z" fill="#000000" fill-rule="nonzero" fill-opacity="1" /><path clip-path="url(#clip650)" d="M114.931 222.721 L122.57 222.721 L122.57 196.355 L114.26 198.022 L114.26 193.763 L122.524 192.096 L127.2 192.096 L127.2 222.721 L134.839 222.721 L134.839 226.656 L114.931 226.656 L114.931 222.721 Z" fill="#000000" fill-rule="nonzero" fill-opacity="1" /><path clip-path="url(#clip650)" d="M154.283 195.175 Q150.672 195.175 148.843 198.74 Q147.038 202.281 147.038 209.411 Q147.038 216.517 148.843 220.082 Q150.672 223.624 154.283 223.624 Q157.917 223.624 159.723 220.082 Q161.552 216.517 161.552 209.411 Q161.552 202.281 159.723 198.74 Q157.917 195.175 154.283 195.175 M154.283 191.471 Q160.093 191.471 163.149 196.078 Q166.227 200.661 166.227 209.411 Q166.227 218.138 163.149 222.744 Q160.093 227.327 154.283 227.327 Q148.473 227.327 145.394 222.744 Q142.339 218.138 142.339 209.411 Q142.339 200.661 145.394 196.078 Q148.473 191.471 154.283 191.471 Z" fill="#000000" fill-rule="nonzero" fill-opacity="1" /><path clip-path="url(#clip650)" d="M29.7248 881.114 L35.1993 881.114 Q33.8307 883.597 33.1623 886.111 Q32.4621 888.594 32.4621 891.14 Q32.4621 896.837 36.0905 899.988 Q39.6872 903.139 46.212 903.139 Q52.7369 903.139 56.3653 899.988 Q59.9619 896.837 59.9619 891.14 Q59.9619 888.594 59.2935 886.111 Q58.5933 883.597 57.2247 881.114 L62.6355 881.114 Q63.7814 883.565 64.3543 886.207 Q64.9272 888.816 64.9272 891.777 Q64.9272 899.829 59.8664 904.572 Q54.8057 909.314 46.212 909.314 Q37.491 909.314 32.4939 904.54 Q27.4968 899.734 27.4968 891.395 Q27.4968 888.689 28.0697 886.111 Q28.6108 883.533 29.7248 881.114 Z" fill="#000000" fill-rule="nonzero" fill-opacity="1" /><path clip-path="url(#clip650)" d="M32.4621 857.115 Q32.4621 861.826 36.1542 864.563 Q39.8145 867.3 46.212 867.3 Q52.6095 867.3 56.3017 864.595 Q59.9619 861.858 59.9619 857.115 Q59.9619 852.436 56.2698 849.699 Q52.5777 846.962 46.212 846.962 Q39.8781 846.962 36.186 849.699 Q32.4621 852.436 32.4621 857.115 M27.4968 857.115 Q27.4968 849.476 32.4621 845.116 Q37.4273 840.755 46.212 840.755 Q54.9649 840.755 59.9619 845.116 Q64.9272 849.476 64.9272 857.115 Q64.9272 864.786 59.9619 869.146 Q54.9649 873.475 46.212 873.475 Q37.4273 873.475 32.4621 869.146 Q27.4968 864.786 27.4968 857.115 Z" fill="#000000" fill-rule="nonzero" fill-opacity="1" /><path clip-path="url(#clip650)" d="M42.4881 801.415 L64.0042 801.415 L64.0042 807.272 L42.679 807.272 Q37.6183 807.272 35.1038 809.245 Q32.5894 811.219 32.5894 815.165 Q32.5894 819.908 35.6131 822.645 Q38.6368 825.382 43.8567 825.382 L64.0042 825.382 L64.0042 831.27 L28.3562 831.27 L28.3562 825.382 L33.8944 825.382 Q30.6797 823.282 29.0883 820.449 Q27.4968 817.584 27.4968 813.86 Q27.4968 807.717 31.3163 804.566 Q35.1038 801.415 42.4881 801.415 Z" fill="#000000" fill-rule="nonzero" fill-opacity="1" /><path clip-path="url(#clip650)" d="M45.7664 766.277 Q39.4007 766.277 35.8996 768.918 Q32.3984 771.528 32.3984 776.271 Q32.3984 780.981 35.8996 783.623 Q39.4007 786.233 45.7664 786.233 Q52.1003 786.233 55.6014 783.623 Q59.1026 780.981 59.1026 776.271 Q59.1026 771.528 55.6014 768.918 Q52.1003 766.277 45.7664 766.277 M59.58 760.42 Q68.683 760.42 73.1071 764.462 Q77.5631 768.505 77.5631 776.844 Q77.5631 779.931 77.0857 782.668 Q76.6401 785.406 75.6852 787.984 L69.9879 787.984 Q71.3884 785.406 72.0568 782.891 Q72.7252 780.377 72.7252 777.767 Q72.7252 772.006 69.7015 769.141 Q66.7096 766.277 60.6303 766.277 L57.7339 766.277 Q60.885 768.091 62.4446 770.924 Q64.0042 773.756 64.0042 777.703 Q64.0042 784.26 59.0071 788.27 Q54.01 792.281 45.7664 792.281 Q37.491 792.281 32.4939 788.27 Q27.4968 784.26 27.4968 777.703 Q27.4968 773.756 29.0564 770.924 Q30.616 768.091 33.7671 766.277 L28.3562 766.277 L28.3562 760.42 L59.58 760.42 Z" fill="#000000" fill-rule="nonzero" fill-opacity="1" /><path clip-path="url(#clip650)" d="M44.7161 717.865 L47.5806 717.865 L47.5806 744.792 Q53.6281 744.41 56.8109 741.164 Q59.9619 737.886 59.9619 732.061 Q59.9619 728.687 59.1344 725.536 Q58.3069 722.353 56.6518 719.234 L62.1899 719.234 Q63.5267 722.385 64.227 725.695 Q64.9272 729.005 64.9272 732.411 Q64.9272 740.941 59.9619 745.938 Q54.9967 750.903 46.5303 750.903 Q37.7774 750.903 32.6531 746.193 Q27.4968 741.45 27.4968 733.43 Q27.4968 726.236 32.1438 722.067 Q36.7589 717.865 44.7161 717.865 M42.9973 723.722 Q38.1912 723.786 35.3266 726.427 Q32.4621 729.037 32.4621 733.366 Q32.4621 738.268 35.2312 741.228 Q38.0002 744.156 43.0292 744.601 L42.9973 723.722 Z" fill="#000000" fill-rule="nonzero" fill-opacity="1" /><path clip-path="url(#clip650)" d="M29.4065 685.528 L34.9447 685.528 Q33.6716 688.01 33.035 690.684 Q32.3984 693.357 32.3984 696.222 Q32.3984 700.583 33.7352 702.779 Q35.072 704.943 37.7456 704.943 Q39.7826 704.943 40.9603 703.383 Q42.1061 701.824 43.1565 697.113 L43.6021 695.108 Q44.9389 688.87 47.3897 686.26 Q49.8086 683.618 54.1691 683.618 Q59.1344 683.618 62.0308 687.565 Q64.9272 691.48 64.9272 698.355 Q64.9272 701.219 64.3543 704.338 Q63.8132 707.426 62.6992 710.863 L56.6518 710.863 Q58.3387 707.617 59.198 704.466 Q60.0256 701.315 60.0256 698.227 Q60.0256 694.09 58.6251 691.862 Q57.1929 689.634 54.6147 689.634 Q52.2276 689.634 50.9545 691.257 Q49.6813 692.848 48.5037 698.291 L48.0262 700.328 Q46.8804 705.771 44.5251 708.19 Q42.138 710.609 38.0002 710.609 Q32.9713 710.609 30.2341 707.044 Q27.4968 703.479 27.4968 696.922 Q27.4968 693.676 27.9743 690.811 Q28.4517 687.947 29.4065 685.528 Z" fill="#000000" fill-rule="nonzero" fill-opacity="1" /><path clip-path="url(#clip650)" d="M18.2347 668.499 L28.3562 668.499 L28.3562 656.436 L32.9077 656.436 L32.9077 668.499 L52.2594 668.499 Q56.6199 668.499 57.8613 667.322 Q59.1026 666.112 59.1026 662.452 L59.1026 656.436 L64.0042 656.436 L64.0042 662.452 Q64.0042 669.231 61.4897 671.81 Q58.9434 674.388 52.2594 674.388 L32.9077 674.388 L32.9077 678.684 L28.3562 678.684 L28.3562 674.388 L18.2347 674.388 L18.2347 668.499 Z" fill="#000000" fill-rule="nonzero" fill-opacity="1" /><path clip-path="url(#clip650)" d="M28.3562 648.734 L28.3562 642.877 L64.0042 642.877 L64.0042 648.734 L28.3562 648.734 M14.479 648.734 L14.479 642.877 L21.895 642.877 L21.895 648.734 L14.479 648.734 Z" fill="#000000" fill-rule="nonzero" fill-opacity="1" /><path clip-path="url(#clip650)" d="M32.4621 616.81 Q32.4621 621.52 36.1542 624.258 Q39.8145 626.995 46.212 626.995 Q52.6095 626.995 56.3017 624.29 Q59.9619 621.552 59.9619 616.81 Q59.9619 612.131 56.2698 609.394 Q52.5777 606.657 46.212 606.657 Q39.8781 606.657 36.186 609.394 Q32.4621 612.131 32.4621 616.81 M27.4968 616.81 Q27.4968 609.171 32.4621 604.81 Q37.4273 600.45 46.212 600.45 Q54.9649 600.45 59.9619 604.81 Q64.9272 609.171 64.9272 616.81 Q64.9272 624.481 59.9619 628.841 Q54.9649 633.17 46.212 633.17 Q37.4273 633.17 32.4621 628.841 Q27.4968 624.481 27.4968 616.81 Z" fill="#000000" fill-rule="nonzero" fill-opacity="1" /><path clip-path="url(#clip650)" d="M42.4881 561.11 L64.0042 561.11 L64.0042 566.966 L42.679 566.966 Q37.6183 566.966 35.1038 568.94 Q32.5894 570.913 32.5894 574.86 Q32.5894 579.602 35.6131 582.34 Q38.6368 585.077 43.8567 585.077 L64.0042 585.077 L64.0042 590.965 L28.3562 590.965 L28.3562 585.077 L33.8944 585.077 Q30.6797 582.976 29.0883 580.143 Q27.4968 577.279 27.4968 573.555 Q27.4968 567.412 31.3163 564.261 Q35.1038 561.11 42.4881 561.11 Z" fill="#000000" fill-rule="nonzero" fill-opacity="1" /><polyline clip-path="url(#clip652)" style="stroke:#009af9; stroke-linecap:round; stroke-linejoin:round; stroke-width:4; stroke-opacity:1; fill:none" points="263.091,1350.7 328.537,1372.26 459.427,1363.38 721.208,1373.59 1244.77,1384.24 2291.89,1381.26 "/>
<polyline clip-path="url(#clip652)" style="stroke:#e26f46; stroke-linecap:round; stroke-linejoin:round; stroke-width:4; stroke-opacity:1; fill:none" points="263.091,1299.97 328.537,1261.93 459.427,1185.84 721.208,981.787 1244.77,843.445 2291.89,488.366 "/>
<polyline clip-path="url(#clip652)" style="stroke:#3da44d; stroke-linecap:round; stroke-linejoin:round; stroke-width:4; stroke-opacity:1; fill:none" points="263.091,1261.93 328.537,1135.12 459.427,1046.35 721.208,995.621 1244.77,944.896 2291.89,868.807 "/>
<polyline clip-path="url(#clip652)" style="stroke:#c271d2; stroke-linecap:round; stroke-linejoin:round; stroke-width:4; stroke-opacity:1; fill:none" points="263.091,1325.34 328.537,1206.98 459.427,1122.43 721.208,922.069 1244.77,591.931 2291.89,86.1857 "/>
<path clip-path="url(#clip650)" d="M273.912 352.309 L1112.92 352.309 L1112.92 93.1086 L273.912 93.1086  Z" fill="#ffffff" fill-rule="evenodd" fill-opacity="1"/>
<polyline clip-path="url(#clip650)" style="stroke:#000000; stroke-linecap:round; stroke-linejoin:round; stroke-width:4; stroke-opacity:1; fill:none" points="273.912,352.309 1112.92,352.309 1112.92,93.1086 273.912,93.1086 273.912,352.309 "/>
<polyline clip-path="url(#clip650)" style="stroke:#009af9; stroke-linecap:round; stroke-linejoin:round; stroke-width:4; stroke-opacity:1; fill:none" points="297.807,144.949 441.175,144.949 "/>
<path clip-path="url(#clip650)" d="M481.088 130.84 Q475.996 130.84 472.986 134.636 Q470 138.432 470 144.983 Q470 151.511 472.986 155.307 Q475.996 159.104 481.088 159.104 Q486.181 159.104 489.144 155.307 Q492.13 151.511 492.13 144.983 Q492.13 138.432 489.144 134.636 Q486.181 130.84 481.088 130.84 M481.088 127.044 Q488.357 127.044 492.709 131.928 Q497.06 136.789 497.06 144.983 Q497.06 153.155 492.709 158.039 Q488.357 162.9 481.088 162.9 Q473.797 162.9 469.422 158.039 Q465.07 153.178 465.07 144.983 Q465.07 136.789 469.422 131.928 Q473.797 127.044 481.088 127.044 Z" fill="#000000" fill-rule="nonzero" fill-opacity="1" /><path clip-path="url(#clip650)" d="M508.31 158.34 L508.31 172.09 L504.028 172.09 L504.028 136.303 L508.31 136.303 L508.31 140.238 Q509.653 137.923 511.69 136.812 Q513.75 135.678 516.597 135.678 Q521.32 135.678 524.259 139.428 Q527.222 143.178 527.222 149.289 Q527.222 155.4 524.259 159.15 Q521.32 162.9 516.597 162.9 Q513.75 162.9 511.69 161.789 Q509.653 160.655 508.31 158.34 M522.801 149.289 Q522.801 144.59 520.857 141.928 Q518.935 139.243 515.556 139.243 Q512.176 139.243 510.232 141.928 Q508.31 144.59 508.31 149.289 Q508.31 153.988 510.232 156.673 Q512.176 159.335 515.556 159.335 Q518.935 159.335 520.857 156.673 Q522.801 153.988 522.801 149.289 Z" fill="#000000" fill-rule="nonzero" fill-opacity="1" /><path clip-path="url(#clip650)" d="M538.495 128.942 L538.495 136.303 L547.268 136.303 L547.268 139.613 L538.495 139.613 L538.495 153.687 Q538.495 156.858 539.352 157.761 Q540.231 158.664 542.893 158.664 L547.268 158.664 L547.268 162.229 L542.893 162.229 Q537.963 162.229 536.088 160.4 Q534.213 158.548 534.213 153.687 L534.213 139.613 L531.088 139.613 L531.088 136.303 L534.213 136.303 L534.213 128.942 L538.495 128.942 Z" fill="#000000" fill-rule="nonzero" fill-opacity="1" /><path clip-path="url(#clip650)" d="M552.87 136.303 L557.13 136.303 L557.13 162.229 L552.87 162.229 L552.87 136.303 M552.87 126.21 L557.13 126.21 L557.13 131.604 L552.87 131.604 L552.87 126.21 Z" fill="#000000" fill-rule="nonzero" fill-opacity="1" /><path clip-path="url(#clip650)" d="M586.227 141.28 Q587.824 138.409 590.046 137.044 Q592.268 135.678 595.277 135.678 Q599.328 135.678 601.527 138.525 Q603.727 141.349 603.727 146.581 L603.727 162.229 L599.444 162.229 L599.444 146.719 Q599.444 142.993 598.125 141.187 Q596.805 139.382 594.097 139.382 Q590.787 139.382 588.865 141.581 Q586.944 143.78 586.944 147.576 L586.944 162.229 L582.662 162.229 L582.662 146.719 Q582.662 142.969 581.342 141.187 Q580.023 139.382 577.268 139.382 Q574.004 139.382 572.083 141.604 Q570.162 143.803 570.162 147.576 L570.162 162.229 L565.879 162.229 L565.879 136.303 L570.162 136.303 L570.162 140.331 Q571.62 137.946 573.657 136.812 Q575.694 135.678 578.495 135.678 Q581.319 135.678 583.287 137.113 Q585.278 138.548 586.227 141.28 Z" fill="#000000" fill-rule="nonzero" fill-opacity="1" /><path clip-path="url(#clip650)" d="M624.004 149.196 Q618.842 149.196 616.851 150.377 Q614.861 151.557 614.861 154.405 Q614.861 156.673 616.342 158.016 Q617.847 159.335 620.416 159.335 Q623.958 159.335 626.087 156.835 Q628.24 154.312 628.24 150.145 L628.24 149.196 L624.004 149.196 M632.499 147.437 L632.499 162.229 L628.24 162.229 L628.24 158.293 Q626.782 160.655 624.606 161.789 Q622.43 162.9 619.282 162.9 Q615.301 162.9 612.939 160.678 Q610.601 158.432 610.601 154.682 Q610.601 150.307 613.518 148.085 Q616.458 145.863 622.268 145.863 L628.24 145.863 L628.24 145.446 Q628.24 142.507 626.296 140.909 Q624.375 139.289 620.879 139.289 Q618.657 139.289 616.551 139.821 Q614.444 140.354 612.5 141.419 L612.5 137.483 Q614.838 136.581 617.037 136.141 Q619.236 135.678 621.319 135.678 Q626.944 135.678 629.722 138.594 Q632.499 141.511 632.499 147.437 Z" fill="#000000" fill-rule="nonzero" fill-opacity="1" /><path clip-path="url(#clip650)" d="M641.273 126.21 L645.532 126.21 L645.532 162.229 L641.273 162.229 L641.273 126.21 Z" fill="#000000" fill-rule="nonzero" fill-opacity="1" /><path clip-path="url(#clip650)" d="M669.698 127.669 L689.559 127.669 L689.559 131.604 L674.374 131.604 L674.374 141.789 L688.078 141.789 L688.078 145.724 L674.374 145.724 L674.374 162.229 L669.698 162.229 L669.698 127.669 Z" fill="#000000" fill-rule="nonzero" fill-opacity="1" /><path clip-path="url(#clip650)" d="M708.356 140.284 Q707.638 139.868 706.782 139.682 Q705.948 139.474 704.93 139.474 Q701.319 139.474 699.374 141.835 Q697.453 144.173 697.453 148.571 L697.453 162.229 L693.17 162.229 L693.17 136.303 L697.453 136.303 L697.453 140.331 Q698.795 137.969 700.948 136.835 Q703.101 135.678 706.18 135.678 Q706.619 135.678 707.152 135.747 Q707.684 135.794 708.332 135.909 L708.356 140.284 Z" fill="#000000" fill-rule="nonzero" fill-opacity="1" /><path clip-path="url(#clip650)" d="M724.605 149.196 Q719.443 149.196 717.453 150.377 Q715.462 151.557 715.462 154.405 Q715.462 156.673 716.943 158.016 Q718.448 159.335 721.018 159.335 Q724.559 159.335 726.689 156.835 Q728.842 154.312 728.842 150.145 L728.842 149.196 L724.605 149.196 M733.101 147.437 L733.101 162.229 L728.842 162.229 L728.842 158.293 Q727.383 160.655 725.207 161.789 Q723.031 162.9 719.883 162.9 Q715.902 162.9 713.541 160.678 Q711.203 158.432 711.203 154.682 Q711.203 150.307 714.119 148.085 Q717.059 145.863 722.869 145.863 L728.842 145.863 L728.842 145.446 Q728.842 142.507 726.897 140.909 Q724.976 139.289 721.48 139.289 Q719.258 139.289 717.152 139.821 Q715.045 140.354 713.101 141.419 L713.101 137.483 Q715.439 136.581 717.638 136.141 Q719.837 135.678 721.92 135.678 Q727.545 135.678 730.323 138.594 Q733.101 141.511 733.101 147.437 Z" fill="#000000" fill-rule="nonzero" fill-opacity="1" /><path clip-path="url(#clip650)" d="M760.531 137.298 L760.531 141.28 Q758.726 140.284 756.897 139.798 Q755.091 139.289 753.24 139.289 Q749.096 139.289 746.804 141.928 Q744.513 144.544 744.513 149.289 Q744.513 154.034 746.804 156.673 Q749.096 159.289 753.24 159.289 Q755.091 159.289 756.897 158.803 Q758.726 158.293 760.531 157.298 L760.531 161.233 Q758.749 162.067 756.828 162.483 Q754.929 162.9 752.777 162.9 Q746.92 162.9 743.471 159.219 Q740.022 155.539 740.022 149.289 Q740.022 142.946 743.494 139.312 Q746.99 135.678 753.054 135.678 Q755.022 135.678 756.897 136.095 Q758.772 136.488 760.531 137.298 Z" fill="#000000" fill-rule="nonzero" fill-opacity="1" /><path clip-path="url(#clip650)" d="M772.152 128.942 L772.152 136.303 L780.925 136.303 L780.925 139.613 L772.152 139.613 L772.152 153.687 Q772.152 156.858 773.008 157.761 Q773.888 158.664 776.55 158.664 L780.925 158.664 L780.925 162.229 L776.55 162.229 Q771.619 162.229 769.744 160.4 Q767.869 158.548 767.869 153.687 L767.869 139.613 L764.744 139.613 L764.744 136.303 L767.869 136.303 L767.869 128.942 L772.152 128.942 Z" fill="#000000" fill-rule="nonzero" fill-opacity="1" /><path clip-path="url(#clip650)" d="M786.526 136.303 L790.786 136.303 L790.786 162.229 L786.526 162.229 L786.526 136.303 M786.526 126.21 L790.786 126.21 L790.786 131.604 L786.526 131.604 L786.526 126.21 Z" fill="#000000" fill-rule="nonzero" fill-opacity="1" /><path clip-path="url(#clip650)" d="M809.744 139.289 Q806.318 139.289 804.327 141.974 Q802.337 144.636 802.337 149.289 Q802.337 153.942 804.304 156.627 Q806.295 159.289 809.744 159.289 Q813.147 159.289 815.137 156.604 Q817.128 153.918 817.128 149.289 Q817.128 144.682 815.137 141.997 Q813.147 139.289 809.744 139.289 M809.744 135.678 Q815.299 135.678 818.471 139.289 Q821.642 142.9 821.642 149.289 Q821.642 155.655 818.471 159.289 Q815.299 162.9 809.744 162.9 Q804.165 162.9 800.994 159.289 Q797.846 155.655 797.846 149.289 Q797.846 142.9 800.994 139.289 Q804.165 135.678 809.744 135.678 Z" fill="#000000" fill-rule="nonzero" fill-opacity="1" /><path clip-path="url(#clip650)" d="M850.253 146.581 L850.253 162.229 L845.994 162.229 L845.994 146.719 Q845.994 143.039 844.559 141.21 Q843.123 139.382 840.253 139.382 Q836.804 139.382 834.813 141.581 Q832.822 143.78 832.822 147.576 L832.822 162.229 L828.54 162.229 L828.54 136.303 L832.822 136.303 L832.822 140.331 Q834.35 137.993 836.41 136.835 Q838.494 135.678 841.202 135.678 Q845.67 135.678 847.961 138.456 Q850.253 141.21 850.253 146.581 Z" fill="#000000" fill-rule="nonzero" fill-opacity="1" /><path clip-path="url(#clip650)" d="M870.531 149.196 Q865.369 149.196 863.378 150.377 Q861.387 151.557 861.387 154.405 Q861.387 156.673 862.869 158.016 Q864.373 159.335 866.943 159.335 Q870.484 159.335 872.614 156.835 Q874.767 154.312 874.767 150.145 L874.767 149.196 L870.531 149.196 M879.026 147.437 L879.026 162.229 L874.767 162.229 L874.767 158.293 Q873.308 160.655 871.132 161.789 Q868.957 162.9 865.808 162.9 Q861.827 162.9 859.466 160.678 Q857.128 158.432 857.128 154.682 Q857.128 150.307 860.045 148.085 Q862.984 145.863 868.795 145.863 L874.767 145.863 L874.767 145.446 Q874.767 142.507 872.822 140.909 Q870.901 139.289 867.406 139.289 Q865.183 139.289 863.077 139.821 Q860.97 140.354 859.026 141.419 L859.026 137.483 Q861.364 136.581 863.563 136.141 Q865.762 135.678 867.845 135.678 Q873.47 135.678 876.248 138.594 Q879.026 141.511 879.026 147.437 Z" fill="#000000" fill-rule="nonzero" fill-opacity="1" /><path clip-path="url(#clip650)" d="M887.799 126.21 L892.058 126.21 L892.058 162.229 L887.799 162.229 L887.799 126.21 Z" fill="#000000" fill-rule="nonzero" fill-opacity="1" /><path clip-path="url(#clip650)" d="M932.614 146.025 Q934.118 146.534 935.53 148.201 Q936.965 149.868 938.401 152.784 L943.146 162.229 L938.123 162.229 L933.702 153.363 Q931.989 149.891 930.368 148.756 Q928.771 147.622 925.993 147.622 L920.901 147.622 L920.901 162.229 L916.225 162.229 L916.225 127.669 L926.78 127.669 Q932.706 127.669 935.623 130.145 Q938.54 132.622 938.54 137.622 Q938.54 140.886 937.012 143.039 Q935.507 145.192 932.614 146.025 M920.901 131.511 L920.901 143.78 L926.78 143.78 Q930.16 143.78 931.873 142.229 Q933.609 140.655 933.609 137.622 Q933.609 134.59 931.873 133.062 Q930.16 131.511 926.78 131.511 L920.901 131.511 Z" fill="#000000" fill-rule="nonzero" fill-opacity="1" /><path clip-path="url(#clip650)" d="M956.896 139.289 Q953.47 139.289 951.479 141.974 Q949.489 144.636 949.489 149.289 Q949.489 153.942 951.456 156.627 Q953.447 159.289 956.896 159.289 Q960.299 159.289 962.289 156.604 Q964.28 153.918 964.28 149.289 Q964.28 144.682 962.289 141.997 Q960.299 139.289 956.896 139.289 M956.896 135.678 Q962.451 135.678 965.623 139.289 Q968.794 142.9 968.794 149.289 Q968.794 155.655 965.623 159.289 Q962.451 162.9 956.896 162.9 Q951.317 162.9 948.146 159.289 Q944.998 155.655 944.998 149.289 Q944.998 142.9 948.146 139.289 Q951.317 135.678 956.896 135.678 Z" fill="#000000" fill-rule="nonzero" fill-opacity="1" /><path clip-path="url(#clip650)" d="M975.414 151.997 L975.414 136.303 L979.674 136.303 L979.674 151.835 Q979.674 155.516 981.109 157.368 Q982.544 159.196 985.414 159.196 Q988.863 159.196 990.854 156.997 Q992.868 154.798 992.868 151.002 L992.868 136.303 L997.127 136.303 L997.127 162.229 L992.868 162.229 L992.868 158.247 Q991.317 160.608 989.257 161.766 Q987.22 162.9 984.511 162.9 Q980.044 162.9 977.729 160.122 Q975.414 157.344 975.414 151.997 M986.132 135.678 L986.132 135.678 Z" fill="#000000" fill-rule="nonzero" fill-opacity="1" /><path clip-path="url(#clip650)" d="M1010.11 128.942 L1010.11 136.303 L1018.89 136.303 L1018.89 139.613 L1010.11 139.613 L1010.11 153.687 Q1010.11 156.858 1010.97 157.761 Q1011.85 158.664 1014.51 158.664 L1018.89 158.664 L1018.89 162.229 L1014.51 162.229 Q1009.58 162.229 1007.71 160.4 Q1005.83 158.548 1005.83 153.687 L1005.83 139.613 L1002.71 139.613 L1002.71 136.303 L1005.83 136.303 L1005.83 128.942 L1010.11 128.942 Z" fill="#000000" fill-rule="nonzero" fill-opacity="1" /><path clip-path="url(#clip650)" d="M1024.49 136.303 L1028.75 136.303 L1028.75 162.229 L1024.49 162.229 L1024.49 136.303 M1024.49 126.21 L1028.75 126.21 L1028.75 131.604 L1024.49 131.604 L1024.49 126.21 Z" fill="#000000" fill-rule="nonzero" fill-opacity="1" /><path clip-path="url(#clip650)" d="M1059.21 146.581 L1059.21 162.229 L1054.95 162.229 L1054.95 146.719 Q1054.95 143.039 1053.52 141.21 Q1052.08 139.382 1049.21 139.382 Q1045.76 139.382 1043.77 141.581 Q1041.78 143.78 1041.78 147.576 L1041.78 162.229 L1037.5 162.229 L1037.5 136.303 L1041.78 136.303 L1041.78 140.331 Q1043.31 137.993 1045.37 136.835 Q1047.45 135.678 1050.16 135.678 Q1054.63 135.678 1056.92 138.456 Q1059.21 141.21 1059.21 146.581 Z" fill="#000000" fill-rule="nonzero" fill-opacity="1" /><path clip-path="url(#clip650)" d="M1084.77 148.965 Q1084.77 144.335 1082.84 141.789 Q1080.95 139.243 1077.5 139.243 Q1074.07 139.243 1072.15 141.789 Q1070.25 144.335 1070.25 148.965 Q1070.25 153.571 1072.15 156.118 Q1074.07 158.664 1077.5 158.664 Q1080.95 158.664 1082.84 156.118 Q1084.77 153.571 1084.77 148.965 M1089.02 159.011 Q1089.02 165.631 1086.09 168.849 Q1083.15 172.09 1077.08 172.09 Q1074.84 172.09 1072.84 171.742 Q1070.85 171.418 1068.98 170.724 L1068.98 166.58 Q1070.85 167.599 1072.68 168.085 Q1074.51 168.571 1076.41 168.571 Q1080.6 168.571 1082.68 166.372 Q1084.77 164.196 1084.77 159.775 L1084.77 157.668 Q1083.45 159.96 1081.39 161.094 Q1079.33 162.229 1076.46 162.229 Q1071.69 162.229 1068.77 158.594 Q1065.85 154.96 1065.85 148.965 Q1065.85 142.946 1068.77 139.312 Q1071.69 135.678 1076.46 135.678 Q1079.33 135.678 1081.39 136.812 Q1083.45 137.946 1084.77 140.238 L1084.77 136.303 L1089.02 136.303 L1089.02 159.011 Z" fill="#000000" fill-rule="nonzero" fill-opacity="1" /><polyline clip-path="url(#clip650)" style="stroke:#e26f46; stroke-linecap:round; stroke-linejoin:round; stroke-width:4; stroke-opacity:1; fill:none" points="297.807,196.789 441.175,196.789 "/>
<path clip-path="url(#clip650)" d="M469.746 183.351 L469.746 210.226 L475.394 210.226 Q482.547 210.226 485.857 206.985 Q489.19 203.745 489.19 196.754 Q489.19 189.809 485.857 186.592 Q482.547 183.351 475.394 183.351 L469.746 183.351 M465.07 179.509 L474.676 179.509 Q484.723 179.509 489.422 183.698 Q494.121 187.865 494.121 196.754 Q494.121 205.689 489.398 209.879 Q484.676 214.069 474.676 214.069 L465.07 214.069 L465.07 179.509 Z" fill="#000000" fill-rule="nonzero" fill-opacity="1" /><path clip-path="url(#clip650)" d="M501.389 188.143 L505.648 188.143 L505.648 214.069 L501.389 214.069 L501.389 188.143 M501.389 178.05 L505.648 178.05 L505.648 183.444 L501.389 183.444 L501.389 178.05 Z" fill="#000000" fill-rule="nonzero" fill-opacity="1" /><path clip-path="url(#clip650)" d="M529.583 192.124 Q528.866 191.708 528.009 191.522 Q527.176 191.314 526.157 191.314 Q522.546 191.314 520.602 193.675 Q518.681 196.013 518.681 200.411 L518.681 214.069 L514.398 214.069 L514.398 188.143 L518.681 188.143 L518.681 192.171 Q520.023 189.809 522.176 188.675 Q524.329 187.518 527.407 187.518 Q527.847 187.518 528.38 187.587 Q528.912 187.634 529.56 187.749 L529.583 192.124 Z" fill="#000000" fill-rule="nonzero" fill-opacity="1" /><path clip-path="url(#clip650)" d="M555.185 200.041 L555.185 202.124 L535.602 202.124 Q535.88 206.522 538.241 208.837 Q540.625 211.129 544.861 211.129 Q547.315 211.129 549.606 210.527 Q551.921 209.925 554.19 208.721 L554.19 212.749 Q551.898 213.721 549.491 214.231 Q547.083 214.74 544.606 214.74 Q538.403 214.74 534.769 211.129 Q531.157 207.518 531.157 201.36 Q531.157 194.995 534.583 191.268 Q538.032 187.518 543.866 187.518 Q549.097 187.518 552.13 190.897 Q555.185 194.254 555.185 200.041 M550.926 198.791 Q550.88 195.296 548.958 193.212 Q547.06 191.129 543.912 191.129 Q540.347 191.129 538.194 193.143 Q536.065 195.157 535.741 198.814 L550.926 198.791 Z" fill="#000000" fill-rule="nonzero" fill-opacity="1" /><path clip-path="url(#clip650)" d="M580.833 189.138 L580.833 193.12 Q579.028 192.124 577.199 191.638 Q575.393 191.129 573.541 191.129 Q569.398 191.129 567.106 193.768 Q564.815 196.384 564.815 201.129 Q564.815 205.874 567.106 208.513 Q569.398 211.129 573.541 211.129 Q575.393 211.129 577.199 210.643 Q579.028 210.133 580.833 209.138 L580.833 213.073 Q579.051 213.907 577.129 214.323 Q575.231 214.74 573.079 214.74 Q567.222 214.74 563.773 211.059 Q560.324 207.379 560.324 201.129 Q560.324 194.786 563.796 191.152 Q567.292 187.518 573.356 187.518 Q575.324 187.518 577.199 187.935 Q579.074 188.328 580.833 189.138 Z" fill="#000000" fill-rule="nonzero" fill-opacity="1" /><path clip-path="url(#clip650)" d="M592.453 180.782 L592.453 188.143 L601.227 188.143 L601.227 191.453 L592.453 191.453 L592.453 205.527 Q592.453 208.698 593.31 209.601 Q594.19 210.504 596.852 210.504 L601.227 210.504 L601.227 214.069 L596.852 214.069 Q591.921 214.069 590.046 212.24 Q588.171 210.388 588.171 205.527 L588.171 191.453 L585.046 191.453 L585.046 188.143 L588.171 188.143 L588.171 180.782 L592.453 180.782 Z" fill="#000000" fill-rule="nonzero" fill-opacity="1" /><path clip-path="url(#clip650)" d="M638.472 197.865 Q639.976 198.374 641.388 200.041 Q642.824 201.708 644.259 204.624 L649.004 214.069 L643.981 214.069 L639.56 205.203 Q637.847 201.731 636.226 200.596 Q634.629 199.462 631.851 199.462 L626.759 199.462 L626.759 214.069 L622.083 214.069 L622.083 179.509 L632.638 179.509 Q638.564 179.509 641.481 181.985 Q644.398 184.462 644.398 189.462 Q644.398 192.726 642.87 194.879 Q641.365 197.032 638.472 197.865 M626.759 183.351 L626.759 195.62 L632.638 195.62 Q636.018 195.62 637.731 194.069 Q639.467 192.495 639.467 189.462 Q639.467 186.43 637.731 184.902 Q636.018 183.351 632.638 183.351 L626.759 183.351 Z" fill="#000000" fill-rule="nonzero" fill-opacity="1" /><path clip-path="url(#clip650)" d="M662.754 191.129 Q659.328 191.129 657.337 193.814 Q655.347 196.476 655.347 201.129 Q655.347 205.782 657.314 208.467 Q659.305 211.129 662.754 211.129 Q666.157 211.129 668.147 208.444 Q670.138 205.758 670.138 201.129 Q670.138 196.522 668.147 193.837 Q666.157 191.129 662.754 191.129 M662.754 187.518 Q668.309 187.518 671.481 191.129 Q674.652 194.74 674.652 201.129 Q674.652 207.495 671.481 211.129 Q668.309 214.74 662.754 214.74 Q657.175 214.74 654.004 211.129 Q650.856 207.495 650.856 201.129 Q650.856 194.74 654.004 191.129 Q657.175 187.518 662.754 187.518 Z" fill="#000000" fill-rule="nonzero" fill-opacity="1" /><path clip-path="url(#clip650)" d="M681.272 203.837 L681.272 188.143 L685.532 188.143 L685.532 203.675 Q685.532 207.356 686.967 209.208 Q688.402 211.036 691.272 211.036 Q694.721 211.036 696.712 208.837 Q698.726 206.638 698.726 202.842 L698.726 188.143 L702.985 188.143 L702.985 214.069 L698.726 214.069 L698.726 210.087 Q697.175 212.448 695.115 213.606 Q693.078 214.74 690.37 214.74 Q685.902 214.74 683.587 211.962 Q681.272 209.184 681.272 203.837 M691.99 187.518 L691.99 187.518 Z" fill="#000000" fill-rule="nonzero" fill-opacity="1" /><path clip-path="url(#clip650)" d="M715.971 180.782 L715.971 188.143 L724.744 188.143 L724.744 191.453 L715.971 191.453 L715.971 205.527 Q715.971 208.698 716.828 209.601 Q717.707 210.504 720.369 210.504 L724.744 210.504 L724.744 214.069 L720.369 214.069 Q715.439 214.069 713.564 212.24 Q711.689 210.388 711.689 205.527 L711.689 191.453 L708.564 191.453 L708.564 188.143 L711.689 188.143 L711.689 180.782 L715.971 180.782 Z" fill="#000000" fill-rule="nonzero" fill-opacity="1" /><path clip-path="url(#clip650)" d="M730.346 188.143 L734.605 188.143 L734.605 214.069 L730.346 214.069 L730.346 188.143 M730.346 178.05 L734.605 178.05 L734.605 183.444 L730.346 183.444 L730.346 178.05 Z" fill="#000000" fill-rule="nonzero" fill-opacity="1" /><path clip-path="url(#clip650)" d="M765.068 198.421 L765.068 214.069 L760.809 214.069 L760.809 198.559 Q760.809 194.879 759.374 193.05 Q757.939 191.222 755.068 191.222 Q751.619 191.222 749.628 193.421 Q747.638 195.62 747.638 199.416 L747.638 214.069 L743.355 214.069 L743.355 188.143 L747.638 188.143 L747.638 192.171 Q749.166 189.833 751.226 188.675 Q753.309 187.518 756.017 187.518 Q760.485 187.518 762.777 190.296 Q765.068 193.05 765.068 198.421 Z" fill="#000000" fill-rule="nonzero" fill-opacity="1" /><path clip-path="url(#clip650)" d="M790.624 200.805 Q790.624 196.175 788.702 193.629 Q786.804 191.083 783.355 191.083 Q779.929 191.083 778.008 193.629 Q776.11 196.175 776.11 200.805 Q776.11 205.411 778.008 207.958 Q779.929 210.504 783.355 210.504 Q786.804 210.504 788.702 207.958 Q790.624 205.411 790.624 200.805 M794.883 210.851 Q794.883 217.471 791.943 220.689 Q789.003 223.93 782.939 223.93 Q780.693 223.93 778.702 223.582 Q776.712 223.258 774.837 222.564 L774.837 218.42 Q776.712 219.439 778.54 219.925 Q780.369 220.411 782.267 220.411 Q786.457 220.411 788.54 218.212 Q790.624 216.036 790.624 211.615 L790.624 209.508 Q789.304 211.8 787.244 212.934 Q785.184 214.069 782.314 214.069 Q777.545 214.069 774.628 210.434 Q771.712 206.8 771.712 200.805 Q771.712 194.786 774.628 191.152 Q777.545 187.518 782.314 187.518 Q785.184 187.518 787.244 188.652 Q789.304 189.786 790.624 192.078 L790.624 188.143 L794.883 188.143 L794.883 210.851 Z" fill="#000000" fill-rule="nonzero" fill-opacity="1" /><polyline clip-path="url(#clip650)" style="stroke:#3da44d; stroke-linecap:round; stroke-linejoin:round; stroke-width:4; stroke-opacity:1; fill:none" points="297.807,248.629 441.175,248.629 "/>
<path clip-path="url(#clip650)" d="M478.264 265.909 L465.07 231.349 L469.954 231.349 L480.903 260.446 L491.875 231.349 L496.736 231.349 L483.565 265.909 L478.264 265.909 Z" fill="#000000" fill-rule="nonzero" fill-opacity="1" /><path clip-path="url(#clip650)" d="M509.699 252.876 Q504.537 252.876 502.546 254.057 Q500.556 255.237 500.556 258.085 Q500.556 260.353 502.037 261.696 Q503.542 263.015 506.111 263.015 Q509.653 263.015 511.783 260.515 Q513.935 257.992 513.935 253.825 L513.935 252.876 L509.699 252.876 M518.195 251.117 L518.195 265.909 L513.935 265.909 L513.935 261.973 Q512.477 264.335 510.301 265.469 Q508.125 266.58 504.977 266.58 Q500.996 266.58 498.634 264.358 Q496.297 262.112 496.297 258.362 Q496.297 253.987 499.213 251.765 Q502.153 249.543 507.963 249.543 L513.935 249.543 L513.935 249.126 Q513.935 246.187 511.991 244.589 Q510.07 242.969 506.574 242.969 Q504.352 242.969 502.246 243.501 Q500.139 244.034 498.195 245.099 L498.195 241.163 Q500.533 240.261 502.732 239.821 Q504.931 239.358 507.014 239.358 Q512.639 239.358 515.417 242.274 Q518.195 245.191 518.195 251.117 Z" fill="#000000" fill-rule="nonzero" fill-opacity="1" /><path clip-path="url(#clip650)" d="M526.968 229.89 L531.227 229.89 L531.227 265.909 L526.968 265.909 L526.968 229.89 Z" fill="#000000" fill-rule="nonzero" fill-opacity="1" /><path clip-path="url(#clip650)" d="M540.139 239.983 L544.398 239.983 L544.398 265.909 L540.139 265.909 L540.139 239.983 M540.139 229.89 L544.398 229.89 L544.398 235.284 L540.139 235.284 L540.139 229.89 Z" fill="#000000" fill-rule="nonzero" fill-opacity="1" /><path clip-path="url(#clip650)" d="M565.092 252.876 Q559.93 252.876 557.94 254.057 Q555.949 255.237 555.949 258.085 Q555.949 260.353 557.43 261.696 Q558.935 263.015 561.505 263.015 Q565.046 263.015 567.176 260.515 Q569.329 257.992 569.329 253.825 L569.329 252.876 L565.092 252.876 M573.588 251.117 L573.588 265.909 L569.329 265.909 L569.329 261.973 Q567.87 264.335 565.694 265.469 Q563.518 266.58 560.37 266.58 Q556.389 266.58 554.028 264.358 Q551.69 262.112 551.69 258.362 Q551.69 253.987 554.606 251.765 Q557.546 249.543 563.356 249.543 L569.329 249.543 L569.329 249.126 Q569.329 246.187 567.384 244.589 Q565.463 242.969 561.967 242.969 Q559.745 242.969 557.639 243.501 Q555.532 244.034 553.588 245.099 L553.588 241.163 Q555.926 240.261 558.125 239.821 Q560.324 239.358 562.407 239.358 Q568.032 239.358 570.81 242.274 Q573.588 245.191 573.588 251.117 Z" fill="#000000" fill-rule="nonzero" fill-opacity="1" /><path clip-path="url(#clip650)" d="M603.912 250.261 L603.912 265.909 L599.652 265.909 L599.652 250.399 Q599.652 246.719 598.217 244.89 Q596.782 243.062 593.912 243.062 Q590.463 243.062 588.472 245.261 Q586.481 247.46 586.481 251.256 L586.481 265.909 L582.199 265.909 L582.199 239.983 L586.481 239.983 L586.481 244.011 Q588.009 241.673 590.069 240.515 Q592.152 239.358 594.861 239.358 Q599.328 239.358 601.62 242.136 Q603.912 244.89 603.912 250.261 Z" fill="#000000" fill-rule="nonzero" fill-opacity="1" /><path clip-path="url(#clip650)" d="M616.62 232.622 L616.62 239.983 L625.393 239.983 L625.393 243.293 L616.62 243.293 L616.62 257.367 Q616.62 260.538 617.476 261.441 Q618.356 262.344 621.018 262.344 L625.393 262.344 L625.393 265.909 L621.018 265.909 Q616.088 265.909 614.213 264.08 Q612.338 262.228 612.338 257.367 L612.338 243.293 L609.213 243.293 L609.213 239.983 L612.338 239.983 L612.338 232.622 L616.62 232.622 Z" fill="#000000" fill-rule="nonzero" fill-opacity="1" /><path clip-path="url(#clip650)" d="M662.638 249.705 Q664.143 250.214 665.555 251.881 Q666.99 253.548 668.425 256.464 L673.171 265.909 L668.147 265.909 L663.726 257.043 Q662.013 253.571 660.393 252.436 Q658.796 251.302 656.018 251.302 L650.925 251.302 L650.925 265.909 L646.249 265.909 L646.249 231.349 L656.805 231.349 Q662.731 231.349 665.647 233.825 Q668.564 236.302 668.564 241.302 Q668.564 244.566 667.036 246.719 Q665.532 248.872 662.638 249.705 M650.925 235.191 L650.925 247.46 L656.805 247.46 Q660.185 247.46 661.897 245.909 Q663.634 244.335 663.634 241.302 Q663.634 238.27 661.897 236.742 Q660.185 235.191 656.805 235.191 L650.925 235.191 Z" fill="#000000" fill-rule="nonzero" fill-opacity="1" /><path clip-path="url(#clip650)" d="M686.92 242.969 Q683.495 242.969 681.504 245.654 Q679.513 248.316 679.513 252.969 Q679.513 257.622 681.481 260.307 Q683.471 262.969 686.92 262.969 Q690.323 262.969 692.314 260.284 Q694.305 257.598 694.305 252.969 Q694.305 248.362 692.314 245.677 Q690.323 242.969 686.92 242.969 M686.92 239.358 Q692.476 239.358 695.647 242.969 Q698.819 246.58 698.819 252.969 Q698.819 259.335 695.647 262.969 Q692.476 266.58 686.92 266.58 Q681.342 266.58 678.171 262.969 Q675.022 259.335 675.022 252.969 Q675.022 246.58 678.171 242.969 Q681.342 239.358 686.92 239.358 Z" fill="#000000" fill-rule="nonzero" fill-opacity="1" /><path clip-path="url(#clip650)" d="M705.439 255.677 L705.439 239.983 L709.698 239.983 L709.698 255.515 Q709.698 259.196 711.133 261.048 Q712.569 262.876 715.439 262.876 Q718.888 262.876 720.879 260.677 Q722.893 258.478 722.893 254.682 L722.893 239.983 L727.152 239.983 L727.152 265.909 L722.893 265.909 L722.893 261.927 Q721.342 264.288 719.281 265.446 Q717.244 266.58 714.536 266.58 Q710.069 266.58 707.754 263.802 Q705.439 261.024 705.439 255.677 M716.156 239.358 L716.156 239.358 Z" fill="#000000" fill-rule="nonzero" fill-opacity="1" /><path clip-path="url(#clip650)" d="M740.138 232.622 L740.138 239.983 L748.911 239.983 L748.911 243.293 L740.138 243.293 L740.138 257.367 Q740.138 260.538 740.994 261.441 Q741.874 262.344 744.536 262.344 L748.911 262.344 L748.911 265.909 L744.536 265.909 Q739.605 265.909 737.73 264.08 Q735.855 262.228 735.855 257.367 L735.855 243.293 L732.73 243.293 L732.73 239.983 L735.855 239.983 L735.855 232.622 L740.138 232.622 Z" fill="#000000" fill-rule="nonzero" fill-opacity="1" /><path clip-path="url(#clip650)" d="M754.513 239.983 L758.772 239.983 L758.772 265.909 L754.513 265.909 L754.513 239.983 M754.513 229.89 L758.772 229.89 L758.772 235.284 L754.513 235.284 L754.513 229.89 Z" fill="#000000" fill-rule="nonzero" fill-opacity="1" /><path clip-path="url(#clip650)" d="M789.235 250.261 L789.235 265.909 L784.976 265.909 L784.976 250.399 Q784.976 246.719 783.54 244.89 Q782.105 243.062 779.235 243.062 Q775.786 243.062 773.795 245.261 Q771.804 247.46 771.804 251.256 L771.804 265.909 L767.522 265.909 L767.522 239.983 L771.804 239.983 L771.804 244.011 Q773.332 241.673 775.392 240.515 Q777.476 239.358 780.184 239.358 Q784.651 239.358 786.943 242.136 Q789.235 244.89 789.235 250.261 Z" fill="#000000" fill-rule="nonzero" fill-opacity="1" /><path clip-path="url(#clip650)" d="M814.79 252.645 Q814.79 248.015 812.869 245.469 Q810.971 242.923 807.522 242.923 Q804.096 242.923 802.175 245.469 Q800.276 248.015 800.276 252.645 Q800.276 257.251 802.175 259.798 Q804.096 262.344 807.522 262.344 Q810.971 262.344 812.869 259.798 Q814.79 257.251 814.79 252.645 M819.049 262.691 Q819.049 269.311 816.11 272.529 Q813.17 275.77 807.105 275.77 Q804.86 275.77 802.869 275.422 Q800.878 275.098 799.003 274.404 L799.003 270.26 Q800.878 271.279 802.707 271.765 Q804.536 272.251 806.434 272.251 Q810.624 272.251 812.707 270.052 Q814.79 267.876 814.79 263.455 L814.79 261.348 Q813.471 263.64 811.411 264.774 Q809.35 265.909 806.48 265.909 Q801.712 265.909 798.795 262.274 Q795.878 258.64 795.878 252.645 Q795.878 246.626 798.795 242.992 Q801.712 239.358 806.48 239.358 Q809.35 239.358 811.411 240.492 Q813.471 241.626 814.79 243.918 L814.79 239.983 L819.049 239.983 L819.049 262.691 Z" fill="#000000" fill-rule="nonzero" fill-opacity="1" /><polyline clip-path="url(#clip650)" style="stroke:#c271d2; stroke-linecap:round; stroke-linejoin:round; stroke-width:4; stroke-opacity:1; fill:none" points="297.807,300.469 441.175,300.469 "/>
<path clip-path="url(#clip650)" d="M481.459 301.545 Q482.963 302.054 484.375 303.721 Q485.81 305.388 487.246 308.304 L491.991 317.749 L486.968 317.749 L482.547 308.883 Q480.834 305.411 479.213 304.276 Q477.616 303.142 474.838 303.142 L469.746 303.142 L469.746 317.749 L465.07 317.749 L465.07 283.189 L475.625 283.189 Q481.551 283.189 484.468 285.665 Q487.385 288.142 487.385 293.142 Q487.385 296.406 485.857 298.559 Q484.352 300.712 481.459 301.545 M469.746 287.031 L469.746 299.3 L475.625 299.3 Q479.005 299.3 480.718 297.749 Q482.454 296.175 482.454 293.142 Q482.454 290.11 480.718 288.582 Q479.005 287.031 475.625 287.031 L469.746 287.031 Z" fill="#000000" fill-rule="nonzero" fill-opacity="1" /><path clip-path="url(#clip650)" d="M508.565 304.716 Q503.403 304.716 501.412 305.897 Q499.422 307.077 499.422 309.925 Q499.422 312.193 500.903 313.536 Q502.408 314.855 504.977 314.855 Q508.519 314.855 510.648 312.355 Q512.801 309.832 512.801 305.665 L512.801 304.716 L508.565 304.716 M517.06 302.957 L517.06 317.749 L512.801 317.749 L512.801 313.813 Q511.343 316.175 509.167 317.309 Q506.991 318.42 503.843 318.42 Q499.861 318.42 497.5 316.198 Q495.162 313.952 495.162 310.202 Q495.162 305.827 498.079 303.605 Q501.019 301.383 506.829 301.383 L512.801 301.383 L512.801 300.966 Q512.801 298.027 510.857 296.429 Q508.935 294.809 505.44 294.809 Q503.218 294.809 501.111 295.341 Q499.005 295.874 497.06 296.939 L497.06 293.003 Q499.398 292.101 501.597 291.661 Q503.796 291.198 505.88 291.198 Q511.505 291.198 514.283 294.114 Q517.06 297.031 517.06 302.957 Z" fill="#000000" fill-rule="nonzero" fill-opacity="1" /><path clip-path="url(#clip650)" d="M547.384 302.101 L547.384 317.749 L543.125 317.749 L543.125 302.239 Q543.125 298.559 541.69 296.73 Q540.255 294.902 537.384 294.902 Q533.935 294.902 531.944 297.101 Q529.954 299.3 529.954 303.096 L529.954 317.749 L525.671 317.749 L525.671 291.823 L529.954 291.823 L529.954 295.851 Q531.482 293.513 533.542 292.355 Q535.625 291.198 538.333 291.198 Q542.801 291.198 545.093 293.976 Q547.384 296.73 547.384 302.101 Z" fill="#000000" fill-rule="nonzero" fill-opacity="1" /><path clip-path="url(#clip650)" d="M572.94 295.758 L572.94 281.73 L577.199 281.73 L577.199 317.749 L572.94 317.749 L572.94 313.86 Q571.597 316.175 569.537 317.309 Q567.5 318.42 564.629 318.42 Q559.93 318.42 556.967 314.67 Q554.028 310.92 554.028 304.809 Q554.028 298.698 556.967 294.948 Q559.93 291.198 564.629 291.198 Q567.5 291.198 569.537 292.332 Q571.597 293.443 572.94 295.758 M558.426 304.809 Q558.426 309.508 560.347 312.193 Q562.292 314.855 565.671 314.855 Q569.051 314.855 570.995 312.193 Q572.94 309.508 572.94 304.809 Q572.94 300.11 570.995 297.448 Q569.051 294.763 565.671 294.763 Q562.292 294.763 560.347 297.448 Q558.426 300.11 558.426 304.809 Z" fill="#000000" fill-rule="nonzero" fill-opacity="1" /><path clip-path="url(#clip650)" d="M596.018 294.809 Q592.592 294.809 590.602 297.494 Q588.611 300.156 588.611 304.809 Q588.611 309.462 590.578 312.147 Q592.569 314.809 596.018 314.809 Q599.421 314.809 601.412 312.124 Q603.402 309.438 603.402 304.809 Q603.402 300.202 601.412 297.517 Q599.421 294.809 596.018 294.809 M596.018 291.198 Q601.574 291.198 604.745 294.809 Q607.916 298.42 607.916 304.809 Q607.916 311.175 604.745 314.809 Q601.574 318.42 596.018 318.42 Q590.44 318.42 587.268 314.809 Q584.12 311.175 584.12 304.809 Q584.12 298.42 587.268 294.809 Q590.44 291.198 596.018 291.198 Z" fill="#000000" fill-rule="nonzero" fill-opacity="1" /><path clip-path="url(#clip650)" d="M635.162 296.8 Q636.759 293.929 638.981 292.564 Q641.203 291.198 644.212 291.198 Q648.263 291.198 650.462 294.045 Q652.661 296.869 652.661 302.101 L652.661 317.749 L648.379 317.749 L648.379 302.239 Q648.379 298.513 647.06 296.707 Q645.74 294.902 643.032 294.902 Q639.722 294.902 637.8 297.101 Q635.879 299.3 635.879 303.096 L635.879 317.749 L631.597 317.749 L631.597 302.239 Q631.597 298.489 630.277 296.707 Q628.958 294.902 626.203 294.902 Q622.939 294.902 621.018 297.124 Q619.097 299.323 619.097 303.096 L619.097 317.749 L614.814 317.749 L614.814 291.823 L619.097 291.823 L619.097 295.851 Q620.555 293.466 622.592 292.332 Q624.629 291.198 627.43 291.198 Q630.254 291.198 632.222 292.633 Q634.212 294.068 635.162 296.8 Z" fill="#000000" fill-rule="nonzero" fill-opacity="1" /><path clip-path="url(#clip650)" d="M671.62 283.189 L700.856 283.189 L700.856 287.124 L688.587 287.124 L688.587 317.749 L683.888 317.749 L683.888 287.124 L671.62 287.124 L671.62 283.189 Z" fill="#000000" fill-rule="nonzero" fill-opacity="1" /><path clip-path="url(#clip650)" d="M713.24 295.804 Q712.522 295.388 711.666 295.202 Q710.832 294.994 709.814 294.994 Q706.203 294.994 704.258 297.355 Q702.337 299.693 702.337 304.091 L702.337 317.749 L698.055 317.749 L698.055 291.823 L702.337 291.823 L702.337 295.851 Q703.68 293.489 705.832 292.355 Q707.985 291.198 711.064 291.198 Q711.504 291.198 712.036 291.267 Q712.569 291.314 713.217 291.429 L713.24 295.804 Z" fill="#000000" fill-rule="nonzero" fill-opacity="1" /><path clip-path="url(#clip650)" d="M738.842 303.721 L738.842 305.804 L719.258 305.804 Q719.536 310.202 721.897 312.517 Q724.281 314.809 728.517 314.809 Q730.971 314.809 733.263 314.207 Q735.578 313.605 737.846 312.401 L737.846 316.429 Q735.554 317.401 733.147 317.911 Q730.74 318.42 728.263 318.42 Q722.059 318.42 718.425 314.809 Q714.814 311.198 714.814 305.04 Q714.814 298.675 718.24 294.948 Q721.689 291.198 727.522 291.198 Q732.754 291.198 735.786 294.577 Q738.842 297.934 738.842 303.721 M734.582 302.471 Q734.536 298.976 732.615 296.892 Q730.717 294.809 727.568 294.809 Q724.004 294.809 721.851 296.823 Q719.721 298.837 719.397 302.494 L734.582 302.471 Z" fill="#000000" fill-rule="nonzero" fill-opacity="1" /><path clip-path="url(#clip650)" d="M768.008 303.721 L768.008 305.804 L748.425 305.804 Q748.703 310.202 751.064 312.517 Q753.448 314.809 757.684 314.809 Q760.138 314.809 762.429 314.207 Q764.744 313.605 767.013 312.401 L767.013 316.429 Q764.721 317.401 762.314 317.911 Q759.906 318.42 757.429 318.42 Q751.226 318.42 747.591 314.809 Q743.98 311.198 743.98 305.04 Q743.98 298.675 747.406 294.948 Q750.855 291.198 756.689 291.198 Q761.92 291.198 764.952 294.577 Q768.008 297.934 768.008 303.721 M763.749 302.471 Q763.702 298.976 761.781 296.892 Q759.883 294.809 756.735 294.809 Q753.17 294.809 751.017 296.823 Q748.888 298.837 748.564 302.494 L763.749 302.471 Z" fill="#000000" fill-rule="nonzero" fill-opacity="1" /><path clip-path="url(#clip650)" d="M806.642 301.545 Q808.147 302.054 809.559 303.721 Q810.994 305.388 812.429 308.304 L817.174 317.749 L812.151 317.749 L807.73 308.883 Q806.017 305.411 804.397 304.276 Q802.8 303.142 800.022 303.142 L794.929 303.142 L794.929 317.749 L790.253 317.749 L790.253 283.189 L800.809 283.189 Q806.735 283.189 809.651 285.665 Q812.568 288.142 812.568 293.142 Q812.568 296.406 811.04 298.559 Q809.536 300.712 806.642 301.545 M794.929 287.031 L794.929 299.3 L800.809 299.3 Q804.188 299.3 805.901 297.749 Q807.637 296.175 807.637 293.142 Q807.637 290.11 805.901 288.582 Q804.188 287.031 800.809 287.031 L794.929 287.031 Z" fill="#000000" fill-rule="nonzero" fill-opacity="1" /><path clip-path="url(#clip650)" d="M830.924 294.809 Q827.498 294.809 825.508 297.494 Q823.517 300.156 823.517 304.809 Q823.517 309.462 825.485 312.147 Q827.475 314.809 830.924 314.809 Q834.327 314.809 836.318 312.124 Q838.309 309.438 838.309 304.809 Q838.309 300.202 836.318 297.517 Q834.327 294.809 830.924 294.809 M830.924 291.198 Q836.48 291.198 839.651 294.809 Q842.822 298.42 842.822 304.809 Q842.822 311.175 839.651 314.809 Q836.48 318.42 830.924 318.42 Q825.346 318.42 822.174 314.809 Q819.026 311.175 819.026 304.809 Q819.026 298.42 822.174 294.809 Q825.346 291.198 830.924 291.198 Z" fill="#000000" fill-rule="nonzero" fill-opacity="1" /><path clip-path="url(#clip650)" d="M849.443 307.517 L849.443 291.823 L853.702 291.823 L853.702 307.355 Q853.702 311.036 855.137 312.888 Q856.572 314.716 859.443 314.716 Q862.892 314.716 864.883 312.517 Q866.896 310.318 866.896 306.522 L866.896 291.823 L871.156 291.823 L871.156 317.749 L866.896 317.749 L866.896 313.767 Q865.345 316.128 863.285 317.286 Q861.248 318.42 858.54 318.42 Q854.072 318.42 851.758 315.642 Q849.443 312.864 849.443 307.517 M860.16 291.198 L860.16 291.198 Z" fill="#000000" fill-rule="nonzero" fill-opacity="1" /><path clip-path="url(#clip650)" d="M884.142 284.462 L884.142 291.823 L892.915 291.823 L892.915 295.133 L884.142 295.133 L884.142 309.207 Q884.142 312.378 884.998 313.281 Q885.878 314.184 888.54 314.184 L892.915 314.184 L892.915 317.749 L888.54 317.749 Q883.609 317.749 881.734 315.92 Q879.859 314.068 879.859 309.207 L879.859 295.133 L876.734 295.133 L876.734 291.823 L879.859 291.823 L879.859 284.462 L884.142 284.462 Z" fill="#000000" fill-rule="nonzero" fill-opacity="1" /><path clip-path="url(#clip650)" d="M898.517 291.823 L902.776 291.823 L902.776 317.749 L898.517 317.749 L898.517 291.823 M898.517 281.73 L902.776 281.73 L902.776 287.124 L898.517 287.124 L898.517 281.73 Z" fill="#000000" fill-rule="nonzero" fill-opacity="1" /><path clip-path="url(#clip650)" d="M933.239 302.101 L933.239 317.749 L928.979 317.749 L928.979 302.239 Q928.979 298.559 927.544 296.73 Q926.109 294.902 923.239 294.902 Q919.79 294.902 917.799 297.101 Q915.808 299.3 915.808 303.096 L915.808 317.749 L911.526 317.749 L911.526 291.823 L915.808 291.823 L915.808 295.851 Q917.336 293.513 919.396 292.355 Q921.479 291.198 924.188 291.198 Q928.655 291.198 930.947 293.976 Q933.239 296.73 933.239 302.101 Z" fill="#000000" fill-rule="nonzero" fill-opacity="1" /><path clip-path="url(#clip650)" d="M958.794 304.485 Q958.794 299.855 956.873 297.309 Q954.975 294.763 951.526 294.763 Q948.1 294.763 946.178 297.309 Q944.28 299.855 944.28 304.485 Q944.28 309.091 946.178 311.638 Q948.1 314.184 951.526 314.184 Q954.975 314.184 956.873 311.638 Q958.794 309.091 958.794 304.485 M963.053 314.531 Q963.053 321.151 960.113 324.369 Q957.174 327.61 951.109 327.61 Q948.864 327.61 946.873 327.262 Q944.882 326.938 943.007 326.244 L943.007 322.1 Q944.882 323.119 946.711 323.605 Q948.539 324.091 950.438 324.091 Q954.627 324.091 956.711 321.892 Q958.794 319.716 958.794 315.295 L958.794 313.188 Q957.475 315.48 955.414 316.614 Q953.354 317.749 950.484 317.749 Q945.715 317.749 942.799 314.114 Q939.882 310.48 939.882 304.485 Q939.882 298.466 942.799 294.832 Q945.715 291.198 950.484 291.198 Q953.354 291.198 955.414 292.332 Q957.475 293.466 958.794 295.758 L958.794 291.823 L963.053 291.823 L963.053 314.531 Z" fill="#000000" fill-rule="nonzero" fill-opacity="1" /></svg>
